<svg width="30" height="20" viewBox="0 0 30 20" fill="none" xmlns="http://www.w3.org/2000/svg">
<g clip-path="url(#clip0_38314_466673)">
<path d="M0 4C0 1.79086 1.79086 0 4 0H26C28.2091 0 30 1.79086 30 4V16C30 18.2091 28.2091 20 26 20H4C1.79086 20 0 18.2091 0 16V4Z" fill="white"/>
<path d="M4 0.5H26C27.933 0.5 29.5 2.067 29.5 4V16C29.5 17.933 27.933 19.5 26 19.5H4C2.067 19.5 0.5 17.933 0.5 16V4C0.5 2.067 2.067 0.5 4 0.5Z" stroke="black" stroke-opacity="0.1"/>
<path fill-rule="evenodd" clip-rule="evenodd" d="M4.58008 6.05811L7.35357 1.89785L8.08344 2.38443L5.30995 6.54468L4.58008 6.05811ZM5.62014 6.75148L8.39364 2.59122L9.12351 3.0778L6.35001 7.23806L5.62014 6.75148ZM6.6602 7.44485L9.4337 3.2846L10.1636 3.77118L7.39007 7.93143L6.6602 7.44485ZM19.8343 16.2276L22.6078 12.0673L23.3377 12.5539L20.5642 16.7142L19.8343 16.2276ZM20.8744 16.921L23.6479 12.7607L24.3778 13.2473L21.6043 17.4075L20.8744 16.921ZM25.4178 13.9407L22.6443 18.1009L21.9145 17.6143L24.688 13.4541L25.4178 13.9407Z" fill="black"/>
<path fill-rule="evenodd" clip-rule="evenodd" d="M24.1568 16.5437L20.6899 14.2324L21.0954 13.6242L24.5623 15.9354L24.1568 16.5437Z" fill="white"/>
<path d="M19.1594 12.7728C20.6912 10.4752 20.0703 7.37085 17.7727 5.8391C15.475 4.30734 12.3707 4.92821 10.8389 7.22585C9.30717 9.5235 9.92804 12.6278 12.2257 14.1596C14.5233 15.6914 17.6277 15.0705 19.1594 12.7728Z" fill="#CA163A"/>
<path d="M10.8389 7.22585C10.0734 8.37408 10.3841 9.92724 11.5323 10.6927C12.6805 11.4582 14.2337 11.1476 14.9992 9.99935C15.7647 8.85112 17.3178 8.54049 18.4661 9.30597C19.6143 10.0715 19.9249 11.6246 19.1594 12.7728C17.6285 15.0693 14.5221 15.6906 12.2257 14.1596C9.92922 12.6286 9.30796 9.52231 10.8389 7.22585V7.22585Z" fill="#0E4896"/>
<path fill-rule="evenodd" clip-rule="evenodd" d="M22.6443 1.89783L25.4178 6.05809L24.6879 6.54467L21.9144 2.3844L22.6443 1.89783ZM21.6042 2.59122L24.3778 6.75146L23.6479 7.23804L20.8744 3.07781L21.6042 2.59122ZM20.5642 3.28459L23.3377 7.44483L22.6078 7.93141L19.8343 3.77117L20.5642 3.28459ZM7.39001 12.0673L10.1635 16.2276L9.43365 16.7142L6.66015 12.5539L7.39001 12.0673ZM6.34995 12.7607L9.12345 16.921L8.39358 17.4075L5.62008 13.2473L6.34995 12.7607ZM5.30995 13.4541L8.08345 17.6144L7.35358 18.1009L4.58008 13.9407L5.30995 13.4541Z" fill="black"/>
<path d="M6.85352 15.4298L7.89358 14.7364L6.85352 15.4298ZM20.8929 6.07014L22.1077 5.26027L20.8929 6.07014ZM23.1478 4.5669L24.1879 3.87354Z" fill="black"/>
<path fill-rule="evenodd" clip-rule="evenodd" d="M24.3902 4.17756L23.3502 4.87093L22.9447 4.2627L23.9848 3.56934L24.3902 4.17756ZM22.3101 5.56429L21.0953 6.37416L20.6898 5.76594L21.9046 4.95607L22.3101 5.56429ZM8.09592 15.0405L7.05586 15.7338L6.65039 15.1256L7.69046 14.4322L8.09592 15.0405Z" fill="white"/>
</g>
<defs>
<clipPath id="clip0_38314_466673">
<rect width="30" height="20" rx="4" fill="white"/>
</clipPath>
</defs>
</svg>
