<svg width="30" height="20" viewBox="0 0 30 20" fill="none" xmlns="http://www.w3.org/2000/svg">
<g clip-path="url(#clip0_5355_168188)">
<path d="M0 4C0 1.79086 1.79086 0 4 0H26C28.2091 0 30 1.79086 30 4V15.9996C30 18.2087 28.2091 19.9996 26 19.9996H4C1.79086 19.9996 0 18.2087 0 15.9996V4Z" fill="white"/>
<path d="M4 0.5H26C27.933 0.5 29.5 2.067 29.5 4V15.9996C29.5 17.9326 27.933 19.4996 26 19.4996H4C2.067 19.4996 0.5 17.9326 0.5 15.9996V4C0.5 2.06701 2.067 0.5 4 0.5Z" stroke="black" stroke-opacity="0.1"/>
<path d="M0 0H30V6.66651H0V0Z" fill="#6DA544"/>
<path d="M0 13.3335H30V20H0V13.3335Z" fill="#D80027"/>
<path d="M9.78264 13.3331L0 19.9996V0L9.78264 6.66645V13.3331Z" fill="black"/>
</g>
<defs>
<clipPath id="clip0_5355_168188">
<rect width="30" height="20" rx="4" fill="white"/>
</clipPath>
</defs>
</svg>
