<svg width="30" height="20" viewBox="0 0 30 20" fill="none" xmlns="http://www.w3.org/2000/svg">
<g clip-path="url(#clip0_5355_168211)">
<path d="M0 0H30V20H0V0Z" fill="#055E1C"/>
<path d="M10.7548 11.9563C10.7548 12.6767 11.3249 13.2606 12.0284 13.2606H15.8491C15.8491 13.8608 16.3243 14.3476 16.9105 14.3476H18.1841C18.7703 14.3476 19.2455 13.8609 19.2455 13.2606V11.9563H10.7548ZM19.3514 5.65186V8.69533C19.3514 9.17481 18.9705 9.56487 18.5023 9.56487V10.8692C19.6728 10.8692 20.6249 9.89405 20.6249 8.69533V5.65186H19.3514ZM10.2241 8.69539C10.2241 9.17487 9.84322 9.56493 9.375 9.56493V10.8693C10.5455 10.8693 11.4976 9.89411 11.4976 8.69539V5.65191H10.224V8.69539H10.2241Z" fill="white"/>
<path d="M17.4415 5.65186H18.7151V8.69533H17.4415V5.65186ZM15.5311 7.39121C15.5311 7.5111 15.4359 7.6086 15.3188 7.6086C15.2017 7.6086 15.1065 7.5111 15.1065 7.39121V5.65203H13.8329V7.39121C13.8329 7.5111 13.7377 7.6086 13.6206 7.6086C13.5036 7.6086 13.4084 7.5111 13.4084 7.39121V5.65203H12.1348V7.39121C12.1348 8.23028 12.8013 8.91295 13.6206 8.91295C13.9361 8.91295 14.2288 8.81141 14.4697 8.63891C14.7105 8.81141 15.0032 8.91295 15.3188 8.91295C15.3823 8.91295 15.4447 8.90838 15.5062 8.90035C15.416 9.28116 15.0812 9.5651 14.682 9.5651V10.8695C15.8524 10.8695 16.8046 9.89428 16.8046 8.69557V5.65203H15.531L15.5311 7.39121V7.39121Z" fill="white"/>
<path d="M12.1348 9.56494H14.045V10.8693H12.1348V9.56494Z" fill="white"/>
</g>
<defs>
<clipPath id="clip0_5355_168211">
<rect width="30" height="20" rx="4" fill="white"/>
</clipPath>
</defs>
</svg>
