<svg width="30" height="20" viewBox="0 0 30 20" fill="none" xmlns="http://www.w3.org/2000/svg">
<g clip-path="url(#clip0_5355_168177)">
<path d="M1.01172 0H28.9883V20H1.01172V0Z" fill="white"/>
<path d="M0 0H30V6.66667H0V0Z" fill="#FFA44A"/>
<path d="M0 13.3335H30V20.0002H0V13.3335Z" fill="#1A9F0B"/>
<path d="M0 6.6665H30V13.3332H0V6.6665Z" fill="white"/>
<path d="M15 12C16.1046 12 17 11.1046 17 10C17 8.89543 16.1046 8 15 8C13.8954 8 13 8.89543 13 10C13 11.1046 13.8954 12 15 12Z" fill="white"/>
<path d="M15.0007 12.6668C13.5328 12.6668 12.334 11.468 12.334 10.0002C12.334 8.53233 13.5328 7.3335 15.0007 7.3335C16.4685 7.3335 17.6673 8.53233 17.6673 10.0002C17.6673 11.468 16.4685 12.6668 15.0007 12.6668ZM15.0007 12.0002C16.065 12.0002 17.0007 11.0645 17.0007 10.0002C17.0007 8.93584 16.0708 8.00016 15.0007 8.00016C13.9305 8.00016 13.0007 8.93584 13.0007 10.0002C13.0007 11.0645 13.9363 12.0002 15.0007 12.0002Z" fill="#181A93"/>
<path d="M14.9993 11.3332C15.7357 11.3332 16.3327 10.7362 16.3327 9.99984C16.3327 9.26346 15.7357 8.6665 14.9993 8.6665C14.263 8.6665 13.666 9.26346 13.666 9.99984C13.666 10.7362 14.263 11.3332 14.9993 11.3332Z" fill="#181A93"/>
</g>
<defs>
<clipPath id="clip0_5355_168177">
<rect width="30" height="20" rx="4" fill="white"/>
</clipPath>
</defs>
</svg>
