<svg width="30" height="20" viewBox="0 0 30 20" fill="none" xmlns="http://www.w3.org/2000/svg">
<g clip-path="url(#clip0_33261_326141)">
<path d="M0 0H30V20H0V0Z" fill="white"/>
<path d="M0 0H30V1.4269H0V0ZM0 2.85965H30V4.28655H0V2.85965ZM0 5.71345H30V7.14035H0V5.71345ZM0 8.5731H30V10H0V8.5731ZM0 11.4269H30V12.8538H0V11.4269ZM0 14.2865H30V15.7135H0V14.2865ZM0 17.1404H30V18.5673H0V17.1404Z" fill="#CC0000"/>
<path d="M0 0H15V11.4269H0V0Z" fill="#000066"/>
<path d="M8.96486 2.46199C7.16954 1.79532 5.17538 2.7076 4.50872 4.50292C3.84205 6.29825 4.75433 8.2924 6.54965 8.95906C7.32743 9.25146 8.18708 9.25146 8.97071 8.95906C7.17539 10.3918 4.56135 10.1053 3.12275 8.30994C1.68416 6.51462 1.97655 3.90058 3.77188 2.46199C5.29234 1.25146 7.45024 1.25146 8.96486 2.46199V2.46199ZM10.5263 6.84795L9.32158 8.21053L9.63737 6.42105L7.82451 6.32748L9.421 5.45614L8.36252 3.97661L10.035 4.67836L10.5263 2.92982L11.0175 4.67836L12.69 3.97661L11.6374 5.46199L13.2339 6.33333L11.421 6.4269L11.7368 8.21637L10.5263 6.84795V6.84795Z" fill="#FFCC00"/>
</g>
<defs>
<clipPath id="clip0_33261_326141">
<rect width="30" height="20" rx="4" fill="white"/>
</clipPath>
</defs>
</svg>
