<svg width="30" height="20" viewBox="0 0 30 20" fill="none" xmlns="http://www.w3.org/2000/svg">
<g clip-path="url(#clip0_5355_168144)">
<path d="M0 0H30V20H0V0Z" fill="#D80027"/>
<path d="M16.0344 7.00582C15.7362 8.23974 15.2099 8.00582 14.9526 9.08184C13.4262 8.71342 12.4906 7.18126 12.8531 5.65494C13.2216 4.12863 14.7537 3.19296 16.2742 3.55553C15.7654 5.71342 16.3034 5.90056 16.0344 7.00582V7.00582ZM12.0812 7.9181C13.1631 8.57892 12.7771 9.01167 13.7186 9.59062C12.8999 10.9298 11.1514 11.345 9.81221 10.5263C8.47303 9.70758 8.05782 7.95904 8.87654 6.61986C10.7654 7.77775 11.1105 7.32746 12.0812 7.9181V7.9181ZM11.7303 11.9649C12.6953 11.1403 12.9818 11.6432 13.8239 10.9239C14.8414 12.1169 14.7011 13.9064 13.5081 14.9239C12.3151 15.9415 10.5257 15.8011 9.50812 14.6082C11.1865 13.1696 10.8648 12.7017 11.7303 11.9649V11.9649ZM15.4672 13.5497C14.9818 12.3742 15.5491 12.2573 15.1222 11.2339C16.5724 10.6316 18.2333 11.3216 18.8298 12.7719C19.4321 14.2222 18.742 15.883 17.2917 16.4795C16.4438 14.4327 15.8999 14.5965 15.4672 13.5497V13.5497ZM18.128 10.4854C16.8648 10.5848 16.9233 10.0117 15.8181 10.0994C15.6952 8.53798 16.8648 7.16956 18.4262 7.04676C19.9876 6.92395 21.3561 8.09354 21.4789 9.65494C19.2742 9.82453 19.2625 10.3976 18.128 10.4854Z" fill="white"/>
</g>
<defs>
<clipPath id="clip0_5355_168144">
<rect width="30" height="20" rx="4" fill="white"/>
</clipPath>
</defs>
</svg>
