<svg width="30" height="20" viewBox="0 0 30 20" fill="none" xmlns="http://www.w3.org/2000/svg">
<g clip-path="url(#clip0_5355_168088)">
<path d="M0 0H30V20H0V0Z" fill="#D80027"/>
<path d="M13.264 13.9883L12.6967 13.076L11.6499 13.3333L12.3459 12.5087L11.7786 11.5965L12.7786 12L13.4687 11.1754L13.3926 12.2514L14.3926 12.6549L13.3459 12.9123L13.264 13.9883ZM16.995 4.79529L16.4043 5.69588L17.0827 6.53213L16.0476 6.25143L15.457 7.15787L15.3985 6.08184L14.3634 5.80114L15.3692 5.41518L15.3108 4.33915L15.9891 5.17541L16.995 4.79529ZM13.8137 1.48535L13.6967 2.55553L14.6792 2.99997L13.6266 3.22219L13.5096 4.29237L12.9716 3.3567L11.9248 3.57892L12.6441 2.77775L12.1061 1.84792L13.0885 2.28652L13.8137 1.48535ZM17.1236 9.46196L16.2523 10.0994L16.5915 11.1228L15.7201 10.4912L14.8488 11.1345L15.1763 10.1052L14.3049 9.4795L15.3809 9.47366L15.7084 8.44442L16.0476 9.46781L17.1236 9.46196ZM6.72597 2.70757L7.73766 5.83623H11.0242L8.36924 7.76021L9.38094 10.8889L6.72597 8.95904L4.06515 10.8889L5.08269 7.76021L2.42188 5.83623H5.71427L6.72597 2.70757Z" fill="white"/>
</g>
<defs>
<clipPath id="clip0_5355_168088">
<rect width="30" height="20" rx="4" fill="white"/>
</clipPath>
</defs>
</svg>
